<?xml version="1.0" encoding="UTF-8" standalone="no"?>
<svg
   version="1.1"
   width="220"
   height="auto"
   viewBox="80 70 452 230"
   id="svg11"
   sodipodi:docname="Logo.cdr"
   xmlns:inkscape="http://www.inkscape.org/namespaces/inkscape"
   xmlns:sodipodi="http://sodipodi.sourceforge.net/DTD/sodipodi-0.dtd"
   xmlns="http://www.w3.org/2000/svg"
   xmlns:svg="http://www.w3.org/2000/svg">
  <defs
     id="defs11" />
  <sodipodi:namedview
     id="namedview11"
     pagecolor="#ffffff"
     bordercolor="#000000"
     borderopacity="0.25"
     inkscape:showpageshadow="2"
     inkscape:pageopacity="0.0"
     inkscape:pagecheckerboard="0"
     inkscape:deskcolor="#d1d1d1"
     inkscape:document-units="in" />
  <g
     id="Layer1000">
    <path
       d="  M401.3266,135.1850 L401.3266,129.6631 L399.3591,129.6631 L399.3591,128.5401 L404.6305,128.5401 L404.6305,129.6631 L402.6720,129.6631 L402.6720,135.1850 L401.3266,135.1850 Z Z M405.4830,135.1850 L405.4830,128.5401 L407.4985,128.5401 L408.6893,133.0720 L409.8665,128.5401 L411.8864,128.5401 L411.8864,135.1850 L410.6429,135.1850 L410.6382,129.9537 L409.3281,135.1850 L408.0350,135.1850 L406.7312,129.9537 L406.7265,135.1850 L405.4830,135.1850 Z"
       style="fill-rule: evenodd; fill: #1b1918; "
       id="path1" />
    <path
       d="  M200.1140,127.4168 L398.0701,127.4168 L398.0701,219.0970 L200.1140,219.0970 L200.1140,127.4168 Z"
       style="fill-rule: evenodd; fill: #ffffff; "
       id="path2" />
    <path
       d="  M394.1051,131.3819 C394.1051,159.2984 394.1051,187.2154 394.1051,215.1319 C330.7631,215.1319 267.4211,215.1319 204.0790,215.1319 C204.0790,187.2154 204.0790,159.2984 204.0790,131.3819 C267.4211,131.3819 330.7631,131.3819 394.1051,131.3819 Z"
       style="fill-rule: evenodd; fill: #1b1918; "
       id="path3" />
    <path
       d="  M206.9986,134.3020 L391.1851,134.3020 L391.1851,153.7794 L206.9986,153.7794 L206.9986,134.3020 Z"
       style="fill-rule: evenodd; fill: #0095c3; "
       id="path4" />
    <path
       d="  M206.9986,173.2569 L229.6914,173.2569 L229.6914,153.7794 L206.9986,153.7794 L206.9986,173.2569 Z"
       style="fill-rule: evenodd; fill: #919395; "
       id="path5" />
    <path
       d="  M206.9986,173.2569 L229.6914,173.2569 L229.6914,192.7343 L206.9986,192.7343 L206.9986,173.2569 Z"
       style="fill-rule: evenodd; fill: #0095c3; "
       id="path6" />
    <path
       d="  M368.4928,173.2569 L391.1851,173.2569 L391.1851,153.7794 L368.4928,153.7794 L368.4928,173.2569 Z"
       style="fill-rule: evenodd; fill: #919395; "
       id="path7" />
    <path
       d="  M368.4928,173.2569 L391.1851,173.2569 L391.1851,192.7343 L368.4928,192.7343 L368.4928,173.2569 Z"
       style="fill-rule: evenodd; fill: #0095c3; "
       id="path8" />
    <path
       d="  M391.1851,212.2118 L206.9986,212.2118 L206.9986,192.7343 L391.1851,192.7343 L391.1851,212.2118 Z"
       style="fill-rule: evenodd; fill: #919395; "
       id="path9" />
    <path
       d="  M242.1807,180.4183 L240.3087,180.4183 C240.2121,180.2676 240.1216,180.1004 240.0383,179.9127 C239.9577,179.7256 239.8871,179.5181 239.8302,179.2869 C239.6663,179.7588 239.3881,180.1103 238.9935,180.3482 C238.6017,180.5827 238.0962,180.6997 237.4736,180.6997 C236.5398,180.6997 235.8499,180.4552 235.4013,179.9630 C234.9526,179.4745 234.7285,178.7107 234.7285,177.6798 L234.7285,169.1905 C234.7285,167.9488 235.0067,167.0746 235.5657,166.5723 C236.1248,166.0674 237.0856,165.8163 238.4444,165.8163 C239.7839,165.8163 240.7408,166.0641 241.3165,166.5558 C241.8926,167.0514 242.1807,167.8682 242.1807,169.0128 L242.1807,170.1144 L239.3484,170.1144 C239.3550,170.0476 239.3617,169.9770 239.3650,169.8970 C239.3683,169.8197 239.3683,169.7126 239.3683,169.5758 C239.3683,169.1304 239.2982,168.8086 239.1575,168.6182 C239.0167,168.4240 238.7860,168.3268 238.4643,168.3268 C238.1298,168.3268 237.8991,168.4206 237.7716,168.6077 C237.6447,168.7921 237.5807,169.1674 237.5807,169.7330 L237.5807,176.1599 C237.5807,177.0572 237.6447,177.6097 237.7716,177.8271 C237.8991,178.0413 238.1298,178.1489 238.4643,178.1489 C238.7590,178.1489 238.9797,178.0584 239.1271,177.8740 C239.2745,177.6936 239.3484,177.4220 239.3484,177.0605 L239.3484,174.2922 L238.4643,174.2922 L238.4643,171.7414 L242.1807,171.7414 L242.1807,180.4183 Z Z M246.7835,171.8015 C246.8371,171.8082 246.8972,171.8115 246.9640,171.8148 C247.0341,171.8181 247.1351,171.8220 247.2653,171.8220 C247.6969,171.8220 248.0220,171.7447 248.2427,171.5940 C248.4607,171.4434 248.5711,171.2187 248.5711,170.9174 L248.5711,169.4720 C248.5711,169.1436 248.4674,168.9024 248.2560,168.7452 C248.0490,168.5879 247.7240,168.5078 247.2852,168.5078 C247.1550,168.5078 247.0512,168.5112 246.9811,168.5145 C246.9072,168.5172 246.8437,168.5205 246.7835,168.5277 L246.7835,171.8015 Z Z M246.7835,174.2222 L246.7835,178.0081 C246.8569,178.0214 246.9375,178.0319 247.0247,178.0385 C247.1114,178.0446 247.2388,178.0479 247.4022,178.0479 C247.8476,178.0479 248.1793,177.9612 248.3901,177.7868 C248.6048,177.6163 248.7118,177.3486 248.7118,176.9871 L248.7118,175.1322 C248.7118,174.8248 248.5976,174.5903 248.3735,174.4225 C248.1456,174.2553 247.8178,174.1714 247.3829,174.1714 C247.2317,174.1714 247.1147,174.1747 247.0275,174.1819 C246.9441,174.1885 246.8636,174.2017 246.7835,174.2222 Z Z M244.0517,180.4183 L244.0517,166.0972 L247.9116,166.0972 C248.9558,166.0972 249.7759,166.3284 250.3719,166.7937 C250.9647,167.2556 251.2627,167.8947 251.2627,168.7049 L251.2627,170.8010 C251.2627,171.4202 251.0883,171.9185 250.7434,172.2900 C250.3984,172.6619 249.9166,172.8695 249.2974,172.9097 C249.9773,172.9600 250.5094,173.1907 250.8907,173.5958 C251.2726,174.0008 251.4630,174.5362 251.4630,175.2023 L251.4630,177.5865 C251.4630,178.5805 251.1821,179.3001 250.6197,179.7488 C250.0574,180.1942 249.1567,180.4183 247.9116,180.4183 L244.0517,180.4183 Z Z M252.2666,180.4183 L254.7170,166.0972 L258.5538,166.0972 L261.0042,180.4183 L258.0516,180.4183 L257.7304,177.9077 L255.5410,177.9077 L255.2198,180.4183 L252.2666,180.4183 Z Z M255.8456,175.2967 L257.4053,175.2967 L256.6420,168.5481 L255.8456,175.2967 Z Z M264.7803,168.6679 L264.7803,177.8271 C264.9309,177.8337 265.0948,177.8442 265.2720,177.8542 C265.4464,177.8641 265.5468,177.8674 265.5667,177.8674 C265.9116,177.8674 266.1594,177.7901 266.3068,177.6334 C266.4542,177.4761 266.5276,177.2217 266.5276,176.8663 L266.5276,169.6089 C266.5276,169.2507 266.4503,168.9996 266.2936,168.8588 C266.1363,168.7187 265.8482,168.6480 265.4298,168.6480 C265.2593,168.6480 265.1285,168.6480 265.0347,168.6513 C264.9442,168.6552 264.8575,168.6618 264.7803,168.6679 Z Z M265.4298,166.0972 C266.8863,166.0972 267.9106,166.3080 268.4962,166.7335 C269.0850,167.1585 269.3797,167.8820 269.3797,168.9024 L269.3797,177.5429 C269.3797,178.6036 269.0889,179.3470 268.5061,179.7759 C267.9266,180.2041 266.8990,180.4183 265.4298,180.4183 L261.9882,180.4183 L261.9882,166.0972 L265.4298,166.0972 Z Z M282.7737,180.4183 L280.9022,180.4183 C280.8056,180.2676 280.7146,180.1004 280.6312,179.9127 C280.5506,179.7256 280.4806,179.5181 280.4237,179.2869 C280.2592,179.7588 279.9816,180.1103 279.5870,180.3482 C279.1946,180.5827 278.6897,180.6997 278.0671,180.6997 C277.1328,180.6997 276.4434,180.4552 275.9948,179.9630 C275.5461,179.4745 275.3220,178.7107 275.3220,177.6798 L275.3220,169.1905 C275.3220,167.9488 275.6002,167.0746 276.1587,166.5723 C276.7177,166.0674 277.6786,165.8163 279.0379,165.8163 C280.3768,165.8163 281.3338,166.0641 281.9100,166.5558 C282.4856,167.0514 282.7737,167.8682 282.7737,169.0128 L282.7737,170.1144 L279.9414,170.1144 C279.9485,170.0476 279.9552,169.9770 279.9585,169.8970 C279.9618,169.8197 279.9618,169.7126 279.9618,169.5758 C279.9618,169.1304 279.8911,168.8086 279.7504,168.6182 C279.6102,168.4240 279.3790,168.3268 279.0578,168.3268 C278.7228,168.3268 278.4921,168.4206 278.3651,168.6077 C278.2377,168.7921 278.1742,169.1674 278.1742,169.7330 L278.1742,176.1599 C278.1742,177.0572 278.2377,177.6097 278.3651,177.8271 C278.4921,178.0413 278.7228,178.1489 279.0578,178.1489 C279.3525,178.1489 279.5732,178.0584 279.7206,177.8740 C279.8680,177.6936 279.9414,177.4220 279.9414,177.0605 L279.9414,174.2922 L279.0578,174.2922 L279.0578,171.7414 L282.7737,171.7414 L282.7737,180.4183 Z Z M287.6177,166.0972 L287.6177,177.8073 L290.6906,177.8073 L290.6906,180.4183 L284.7252,180.4183 L284.7252,166.0972 L287.6177,166.0972 Z Z M294.7680,169.6122 L294.7680,176.9033 C294.7680,177.3486 294.8386,177.6731 294.9761,177.8807 C295.1129,178.0849 295.3304,178.1886 295.6317,178.1886 C295.9866,178.1886 296.2311,178.0953 296.3685,177.9044 C296.5054,177.7134 296.5760,177.3387 296.5760,176.7763 L296.5760,169.6287 C296.5760,169.1271 296.5087,168.7854 296.3751,168.6011 C296.2416,168.4173 296.0070,168.3268 295.6720,168.3268 C295.3508,168.3268 295.1196,168.4273 294.9794,168.6248 C294.8386,168.8257 294.7680,169.1536 294.7680,169.6122 Z Z M299.3680,176.9640 C299.3680,178.3763 299.0998,179.3504 298.5645,179.8896 C298.0286,180.4282 297.0644,180.6997 295.6720,180.6997 C294.2658,180.6997 293.2950,180.4282 292.7597,179.8862 C292.2238,179.3437 291.9566,178.3696 291.9566,176.9640 L291.9566,169.5520 C291.9566,168.1397 292.2238,167.1651 292.7597,166.6264 C293.2950,166.0872 294.2658,165.8163 295.6720,165.8163 C297.0644,165.8163 298.0286,166.0872 298.5645,166.6264 C299.0998,167.1651 299.3680,168.1397 299.3680,169.5520 L299.3680,176.9640 Z Z M303.8903,171.8015 C303.9438,171.8082 304.0040,171.8115 304.0713,171.8148 C304.1414,171.8181 304.2418,171.8220 304.3726,171.8220 C304.8042,171.8220 305.1287,171.7447 305.3500,171.5940 C305.5675,171.4434 305.6778,171.2187 305.6778,170.9174 L305.6778,169.4720 C305.6778,169.1436 305.5741,168.9024 305.3633,168.7452 C305.1558,168.5879 304.8307,168.5078 304.3925,168.5078 C304.2617,168.5078 304.1579,168.5112 304.0878,168.5145 C304.0139,168.5172 303.9504,168.5205 303.8903,168.5277 L303.8903,171.8015 Z Z M303.8903,174.2222 L303.8903,178.0081 C303.9642,178.0214 304.0442,178.0319 304.1314,178.0385 C304.2186,178.0446 304.3456,178.0479 304.5095,178.0479 C304.9549,178.0479 305.2866,177.9612 305.4974,177.7868 C305.7115,177.6163 305.8186,177.3486 305.8186,176.9871 L305.8186,175.1322 C305.8186,174.8248 305.7043,174.5903 305.4803,174.4225 C305.2529,174.2553 304.9245,174.1714 304.4896,174.1714 C304.3390,174.1714 304.2220,174.1747 304.1348,174.1819 C304.0509,174.1885 303.9703,174.2017 303.8903,174.2222 Z Z M301.1589,180.4183 L301.1589,166.0972 L305.0183,166.0972 C306.0631,166.0972 306.8832,166.3284 307.4787,166.7937 C308.0714,167.2556 308.3694,167.8947 308.3694,168.7049 L308.3694,170.8010 C308.3694,171.4202 308.1956,171.9185 307.8501,172.2900 C307.5057,172.6619 307.0239,172.8695 306.4041,172.9097 C307.0841,172.9600 307.6167,173.1907 307.9975,173.5958 C308.3794,174.0008 308.5703,174.5362 308.5703,175.2023 L308.5703,177.5865 C308.5703,178.5805 308.2889,179.3001 307.7270,179.7488 C307.1641,180.1942 306.2634,180.4183 305.0183,180.4183 L301.1589,180.4183 Z Z M309.3739,180.4183 L311.8243,166.0972 L315.6611,166.0972 L318.1109,180.4183 L315.1583,180.4183 L314.8371,177.9077 L312.6477,177.9077 L312.3265,180.4183 L309.3739,180.4183 Z Z M312.9524,175.2967 L314.5126,175.2967 L313.7493,168.5481 L312.9524,175.2967 Z Z M322.0680,166.0972 L322.0680,177.8073 L325.1410,177.8073 L325.1410,180.4183 L319.1755,180.4183 L319.1755,166.0972 L322.0680,166.0972 Z Z M329.3194,171.8015 C329.3723,171.8082 329.4330,171.8115 329.4998,171.8148 C329.5699,171.8181 329.6704,171.8220 329.8012,171.8220 C330.2327,171.8220 330.5573,171.7447 330.7786,171.5940 C330.9960,171.4434 331.1064,171.2187 331.1064,170.9174 L331.1064,169.4720 C331.1064,169.1436 331.0026,168.9024 330.7918,168.7452 C330.5843,168.5879 330.2592,168.5078 329.8210,168.5078 C329.6908,168.5078 329.5870,168.5112 329.5164,168.5145 C329.4430,168.5172 329.3790,168.5205 329.3194,168.5277 L329.3194,171.8015 Z Z M329.3194,174.2222 L329.3194,178.0081 C329.3928,178.0214 329.4733,178.0319 329.5600,178.0385 C329.6472,178.0446 329.7741,178.0479 329.9380,178.0479 C330.3834,178.0479 330.7151,177.9612 330.9259,177.7868 C331.1401,177.6163 331.2471,177.3486 331.2471,176.9871 L331.2471,175.1322 C331.2471,174.8248 331.1334,174.5903 330.9094,174.4225 C330.6814,174.2553 330.3536,174.1714 329.9182,174.1714 C329.7675,174.1714 329.6505,174.1747 329.5633,174.1819 C329.4794,174.1885 329.3994,174.2017 329.3194,174.2222 Z Z M326.5875,180.4183 L326.5875,166.0972 L330.4469,166.0972 C331.4916,166.0972 332.3117,166.3284 332.9078,166.7937 C333.5005,167.2556 333.7980,167.8947 333.7980,168.7049 L333.7980,170.8010 C333.7980,171.4202 333.6241,171.9185 333.2792,172.2900 C332.9343,172.6619 332.4525,172.8695 331.8332,172.9097 C332.5126,172.9600 333.0452,173.1907 333.4266,173.5958 C333.8079,174.0008 333.9989,174.5362 333.9989,175.2023 L333.9989,177.5865 C333.9989,178.5805 333.7180,179.3001 333.1556,179.7488 C332.5926,180.1942 331.6925,180.4183 330.4469,180.4183 L326.5875,180.4183 Z Z M338.4179,169.6122 L338.4179,176.9033 C338.4179,177.3486 338.4880,177.6731 338.6260,177.8807 C338.7628,178.0849 338.9803,178.1886 339.2816,178.1886 C339.6365,178.1886 339.8810,178.0953 340.0184,177.9044 C340.1553,177.7134 340.2253,177.3387 340.2253,176.7763 L340.2253,169.6287 C340.2253,169.1271 340.1586,168.7854 340.0250,168.6011 C339.8909,168.4173 339.6569,168.3268 339.3219,168.3268 C339.0007,168.3268 338.7694,168.4273 338.6287,168.6248 C338.4880,168.8257 338.4179,169.1536 338.4179,169.6122 Z Z M343.0179,176.9640 C343.0179,178.3763 342.7497,179.3504 342.2144,179.8896 C341.6785,180.4282 340.7143,180.6997 339.3219,180.6997 C337.9157,180.6997 336.9449,180.4282 336.4095,179.8862 C335.8737,179.3437 335.6060,178.3696 335.6060,176.9640 L335.6060,169.5520 C335.6060,168.1397 335.8737,167.1651 336.4095,166.6264 C336.9449,166.0872 337.9157,165.8163 339.3219,165.8163 C340.7143,165.8163 341.6785,166.0872 342.2144,166.6264 C342.7497,167.1651 343.0179,168.1397 343.0179,169.5520 L343.0179,176.9640 Z Z M350.1710,180.4183 C349.6357,178.4364 349.1302,176.4816 348.6550,174.5533 C348.1759,172.6217 347.7239,170.7066 347.3023,168.8059 L347.3796,180.4183 L344.8083,180.4183 L344.8083,166.0972 L348.6715,166.0972 C349.2472,168.2700 349.7764,170.3252 350.2549,172.2668 C350.7373,174.2084 351.1622,176.0230 351.5337,177.7101 L351.4564,166.0972 L354.0680,166.0972 L354.0680,180.4183 L350.1710,180.4183 Z Z M358.8479,168.6679 L358.8479,177.8271 C358.9986,177.8337 359.1631,177.8442 359.3402,177.8542 C359.5141,177.8641 359.6145,177.8674 359.6349,177.8674 C359.9799,177.8674 360.2277,177.7901 360.3750,177.6334 C360.5224,177.4761 360.5958,177.2217 360.5958,176.8663 L360.5958,169.6089 C360.5958,169.2507 360.5185,168.9996 360.3612,168.8588 C360.2039,168.7187 359.9158,168.6480 359.4975,168.6480 C359.3270,168.6480 359.1967,168.6480 359.1023,168.6513 C359.0124,168.6552 358.9252,168.6618 358.8479,168.6679 Z Z M359.4975,166.0972 C360.9539,166.0972 361.9783,166.3080 362.5638,166.7335 C363.1532,167.1585 363.4480,167.8820 363.4480,168.9024 L363.4480,177.5429 C363.4480,178.6036 363.1566,179.3470 362.5738,179.7759 C361.9948,180.2041 360.9672,180.4183 359.4975,180.4183 L356.0564,180.4183 L356.0564,166.0972 L359.4975,166.0972 Z"
       style="fill-rule: evenodd; fill: #ffffff; "
       id="path10" />
    <path
       d="  M208.8165,230.6759 L208.8165,223.5809 L206.2881,223.5809 L206.2881,222.1383 L213.0615,222.1383 L213.0615,223.5809 L210.5452,223.5809 L210.5452,230.6759 L208.8165,230.6759 Z Z M214.1208,230.6759 L214.1208,222.1383 L215.8499,222.1383 L215.8499,230.6759 L214.1208,230.6759 Z Z M217.5413,230.6759 L217.5413,222.2098 L219.2700,222.2098 L219.2700,229.2329 L223.5510,229.2329 L223.5510,230.6759 L217.5413,230.6759 Z Z M224.7773,230.6759 L224.7773,222.1383 L231.0976,222.1383 L231.0976,223.5809 L226.5064,223.5809 L226.5064,225.4770 L230.7755,225.4770 L230.7755,226.9196 L226.5064,226.9196 L226.5064,229.2329 L231.2642,229.2329 L231.2642,230.6759 L224.7773,230.6759 Z Z M243.2918,230.6759 L241.4294,230.6759 L240.6923,228.7322 L237.2679,228.7322 L236.5586,230.6759 L234.7301,230.6759 L238.0453,222.1383 L239.8716,222.1383 L243.2918,230.6759 Z Z M240.1321,227.2892 L238.9452,224.1295 L237.7926,227.2892 L240.1321,227.2892 Z Z M244.2118,222.1383 L247.3561,222.1383 C248.0654,222.1383 248.6059,222.1918 248.9777,222.3011 C249.4767,222.4480 249.9058,222.7105 250.2613,223.0879 C250.6194,223.4635 250.8897,223.9248 251.0764,224.4713 C251.2610,225.0157 251.3544,225.6895 251.3544,226.4887 C251.3544,227.1920 251.2670,227.7964 251.0923,228.3048 C250.8798,228.9271 250.5757,229.4300 250.1800,229.8133 C249.8819,230.1054 249.4784,230.3320 248.9717,230.4952 C248.5922,230.6164 248.0855,230.6759 247.4494,230.6759 L244.2118,230.6759 L244.2118,222.1383 Z Z M245.9409,223.5809 L245.9409,229.2329 L247.2229,229.2329 C247.7017,229.2329 248.0478,229.2051 248.2602,229.1516 C248.5404,229.0822 248.7708,228.9627 248.9537,228.7961 C249.1387,228.6290 249.2878,228.3545 249.4030,227.9733 C249.5204,227.5916 249.5777,227.0687 249.5777,226.4090 C249.5777,225.7490 249.5204,225.2445 249.4030,224.8907 C249.2878,224.5369 249.1246,224.2627 248.9160,224.0640 C248.7074,223.8670 248.4431,223.7321 248.1210,223.6622 C247.8825,223.6087 247.4117,223.5809 246.7119,223.5809 L245.9409,223.5809 Z Z M252.8231,230.6759 L252.8231,222.1383 L254.5522,222.1383 L254.5522,225.5006 L257.9149,225.5006 L257.9149,222.1383 L259.6441,222.1383 L259.6441,230.6759 L257.9149,230.6759 L257.9149,226.9436 L254.5522,226.9436 L254.5522,230.6759 L252.8231,230.6759 Z Z M261.4344,230.6759 L261.4344,222.1383 L267.7547,222.1383 L267.7547,223.5809 L263.1635,223.5809 L263.1635,225.4770 L267.4326,225.4770 L267.4326,226.9196 L263.1635,226.9196 L263.1635,229.2329 L267.9213,229.2329 L267.9213,230.6759 L261.4344,230.6759 Z Z M268.9347,227.9094 L270.6163,227.7424 C270.7174,228.3048 270.9204,228.7164 271.2283,228.9807 C271.5363,229.2449 271.9518,229.3760 272.4743,229.3760 C273.0268,229.3760 273.4445,229.2591 273.7246,229.0244 C274.0047,228.7901 274.1456,228.5155 274.1456,228.2016 C274.1456,227.9990 274.0861,227.8281 273.9691,227.6850 C273.8518,227.5437 273.6449,227.4207 273.3506,227.3171 C273.1502,227.2456 272.6932,227.1226 271.9775,226.9436 C271.0574,226.7132 270.4115,226.4309 270.0398,226.0951 C269.5172,225.6239 269.2568,225.0496 269.2568,224.3720 C269.2568,223.9368 269.3801,223.5273 269.6243,223.1478 C269.8710,222.7679 270.2248,222.4801 270.6878,222.2814 C271.1508,222.0826 271.7072,221.9832 272.3629,221.9832 C273.4303,221.9832 274.2351,222.2197 274.7739,222.6947 C275.3145,223.1697 275.5967,223.8015 275.6246,224.5947 L273.8955,224.6542 C273.8218,224.2131 273.6650,223.8970 273.4243,223.7042 C273.1840,223.5115 272.8221,223.4138 272.3411,223.4138 C271.8443,223.4138 271.4549,223.5175 271.1748,223.7239 C270.9936,223.8571 270.9024,224.0340 270.9024,224.2568 C270.9024,224.4593 270.9881,224.6324 271.1589,224.7754 C271.3752,224.9601 271.9021,225.1511 272.7386,225.3498 C273.5755,225.5464 274.1936,225.7533 274.5928,225.9640 C274.9945,226.1765 275.3085,226.4647 275.5351,226.8322 C275.7616,227.2002 275.8747,227.6533 275.8747,228.1917 C275.8747,228.6804 275.7398,229.1396 275.4674,229.5670 C275.1950,229.9941 274.8116,230.3123 274.3148,230.5188 C273.8179,230.7278 273.1977,230.8310 272.4563,230.8310 C271.3774,230.8310 270.5486,230.5826 269.9704,230.0836 C269.3921,229.5867 269.0482,228.8616 268.9347,227.9094 Z Z M277.2817,230.6759 L277.2817,222.1383 L279.0109,222.1383 L279.0109,230.6759 L277.2817,230.6759 Z Z M282.8387,230.6759 L279.7840,222.1383 L281.6523,222.1383 L283.8204,228.4581 L285.9012,222.1383 L287.7374,222.1383 L284.7006,230.6759 L282.8387,230.6759 Z Z M288.6077,230.6759 L288.6077,222.1383 L294.9280,222.1383 L294.9280,223.5809 L290.3369,223.5809 L290.3369,225.4770 L294.6059,225.4770 L294.6059,226.9196 L290.3369,226.9196 L290.3369,229.2329 L295.0946,229.2329 L295.0946,230.6759 L288.6077,230.6759 Z Z M296.5016,229.0423 L298.1352,229.0423 L298.1352,230.2129 C298.1352,230.6858 298.0954,231.0614 298.0140,231.3338 C297.9326,231.6080 297.7776,231.8547 297.5510,232.0710 C297.3244,232.2898 297.0362,232.4586 296.6884,232.5837 L296.3706,231.9044 C296.6982,231.7947 296.9308,231.6457 297.0700,231.4551 C297.2071,231.2662 297.2807,231.0058 297.2889,230.6759 L296.5016,230.6759 L296.5016,229.0423 Z Z M307.1582,227.5398 L307.1582,226.0968 L310.8665,226.0968 L310.8665,229.5032 C310.5068,229.8553 309.9842,230.1632 309.2985,230.4314 C308.6149,230.6978 307.9214,230.8310 307.2177,230.8310 C306.3255,230.8310 305.5486,230.6443 304.8847,230.2686 C304.2229,229.8930 303.7239,229.3542 303.3903,228.6569 C303.0562,227.9591 302.8891,227.1980 302.8891,226.3774 C302.8891,225.4869 303.0759,224.6958 303.4477,224.0023 C303.8211,223.3106 304.3660,222.7782 305.0834,222.4086 C305.6321,222.1242 306.3114,221.9832 307.1265,221.9832 C308.1857,221.9832 309.0145,222.2055 309.6107,222.6510 C310.2048,223.0982 310.5886,223.7119 310.7595,224.4992 L309.0423,224.8213 C308.9228,224.4020 308.6963,224.0700 308.3647,223.8254 C308.0345,223.5830 307.6212,223.4618 307.1243,223.4618 C306.3731,223.4618 305.7751,223.7004 305.3318,224.1792 C304.8885,224.6581 304.6658,225.3678 304.6658,226.3075 C304.6658,227.3231 304.8907,228.0842 305.3395,228.5913 C305.7910,229.0980 306.3791,229.3524 307.1085,229.3524 C307.4683,229.3524 307.8298,229.2809 308.1917,229.1396 C308.5553,228.9987 308.8654,228.8256 309.1259,228.6230 L309.1259,227.5398 L307.1582,227.5398 Z Z M312.4625,230.6759 L312.4625,222.1383 L316.0937,222.1383 C317.0056,222.1383 317.6695,222.2158 318.0828,222.3687 C318.4983,222.5216 318.8281,222.7940 319.0765,223.1855 C319.3250,223.5792 319.4505,224.0263 319.4505,224.5309 C319.4505,225.1729 319.2633,225.7015 318.8876,226.1186 C318.5120,226.5363 317.9518,226.7984 317.2044,226.9080 C317.5761,227.1243 317.8824,227.3629 318.1227,227.6233 C318.3651,227.8837 318.6910,228.3468 319.1005,229.0106 L320.1418,230.6759 L318.0811,230.6759 L316.8450,228.8119 C316.4017,228.1502 316.0976,227.7325 315.9327,227.5595 C315.7695,227.3886 315.5969,227.2695 315.4140,227.2061 C315.2290,227.1423 314.9390,227.1106 314.5415,227.1106 L314.1916,227.1106 L314.1916,230.6759 L312.4625,230.6759 Z Z M314.1916,225.7512 L315.4675,225.7512 C316.2942,225.7512 316.8090,225.7156 317.0159,225.6458 C317.2202,225.5764 317.3834,225.4552 317.4986,225.2843 C317.6160,225.1134 317.6734,224.8988 317.6734,224.6422 C317.6734,224.3540 317.5958,224.1235 317.4429,223.9445 C317.2900,223.7676 317.0733,223.6567 316.7953,223.6109 C316.6540,223.5907 316.2346,223.5809 315.5369,223.5809 L314.1916,223.5809 L314.1916,225.7512 Z Z M320.7161,226.4587 C320.7161,225.5884 320.8472,224.8568 321.1076,224.2645 C321.3004,223.8293 321.5668,223.4378 321.9026,223.0922 C322.2384,222.7461 322.6063,222.4899 323.0055,222.3208 C323.5383,222.0963 324.1525,221.9832 324.8481,221.9832 C326.1078,221.9832 327.1135,222.3747 327.8707,223.1555 C328.6259,223.9385 329.0036,225.0256 329.0036,226.4189 C329.0036,227.8002 328.6280,228.8813 327.8789,229.6604 C327.1293,230.4412 326.1258,230.8310 324.8717,230.8310 C323.6017,230.8310 322.5904,230.4434 321.8409,229.6664 C321.0918,228.8911 320.7161,227.8221 320.7161,226.4587 Z Z M322.4928,226.4009 C322.4928,227.3689 322.7177,228.1022 323.1648,228.6029 C323.6120,229.1019 324.1804,229.3524 324.8678,229.3524 C325.5574,229.3524 326.1219,229.1040 326.5652,228.6089 C327.0064,228.1120 327.2270,227.3689 327.2270,226.3774 C327.2270,225.3974 327.0124,224.6662 326.5811,224.1852 C326.1519,223.7021 325.5814,223.4618 324.8678,223.4618 C324.1564,223.4618 323.5820,223.7064 323.1468,224.1929 C322.7117,224.6821 322.4928,225.4175 322.4928,226.4009 Z Z M330.3490,222.1383 L332.0781,222.1383 L332.0781,226.7646 C332.0781,227.5000 332.0999,227.9750 332.1419,228.1917 C332.2152,228.5416 332.3882,228.8239 332.6623,229.0342 C332.9386,229.2471 333.3142,229.3524 333.7914,229.3524 C334.2741,229.3524 334.6399,229.2531 334.8862,229.0522 C335.1329,228.8513 335.2798,228.6072 335.3295,228.3151 C335.3791,228.0229 335.4048,227.5398 335.4048,226.8639 L335.4048,222.1383 L337.1340,222.1383 L337.1340,226.6275 C337.1340,227.6533 337.0886,228.3785 336.9948,228.8016 C336.9014,229.2252 336.7305,229.5829 336.4804,229.8750 C336.2319,230.1671 335.8978,230.3975 335.4807,230.5706 C335.0613,230.7436 334.5165,230.8310 333.8428,230.8310 C333.0303,230.8310 332.4139,230.7376 331.9946,230.5487 C331.5753,230.3598 331.2433,230.1157 330.9992,229.8133 C330.7546,229.5114 330.5957,229.1974 330.5182,228.8654 C330.4047,228.3767 330.3490,227.6533 330.3490,226.6973 L330.3490,222.1383 Z Z M340.8805,230.6759 L340.8805,223.5809 L338.3521,223.5809 L338.3521,222.1383 L345.1255,222.1383 L345.1255,223.5809 L342.6091,223.5809 L342.6091,230.6759 L340.8805,230.6759 Z Z M344.8630,229.0423 L346.4966,229.0423 L346.4966,230.2129 C346.4966,230.6858 346.4567,231.0614 346.3753,231.3338 C346.2940,231.6080 346.1389,231.8547 345.9123,232.0710 C345.6857,232.2898 345.3975,232.4586 345.0497,232.5837 L344.7319,231.9044 C345.0595,231.7947 345.2921,231.6457 345.4313,231.4551 C345.5684,231.2662 345.6421,231.0058 345.6502,230.6759 L344.8630,230.6759 L344.8630,229.0423 Z Z M354.8616,230.6759 L354.8616,222.1383 L361.1818,222.1383 L361.1818,223.5809 L356.5907,223.5809 L356.5907,225.4770 L360.8598,225.4770 L360.8598,226.9196 L356.5907,226.9196 L356.5907,229.2329 L361.3485,229.2329 L361.3485,230.6759 L354.8616,230.6759 Z Z M362.8150,230.6759 L362.8150,222.1383 L365.5798,222.1383 C366.6270,222.1383 367.3085,222.1798 367.6267,222.2655 C368.1154,222.3944 368.5249,222.6728 368.8547,223.1020 C369.1850,223.5312 369.3499,224.0859 369.3499,224.7656 C369.3499,225.2903 369.2543,225.7293 369.0655,226.0870 C368.8749,226.4446 368.6341,226.7251 368.3420,226.9299 C368.0499,227.1325 367.7518,227.2674 367.4498,227.3334 C367.0382,227.4147 366.4442,227.4563 365.6650,227.4563 L364.5441,227.4563 L364.5441,230.6759 L362.8150,230.6759 Z Z M364.5441,223.5809 L364.5441,226.0137 L365.4843,226.0137 C366.1619,226.0137 366.6129,225.9679 366.8416,225.8784 C367.0704,225.7888 367.2490,225.6496 367.3783,225.4569 C367.5072,225.2663 367.5728,225.0457 367.5728,224.7913 C367.5728,224.4790 367.4815,224.2229 367.3008,224.0203 C367.1179,223.8173 366.8892,223.6901 366.6091,223.6387 C366.4043,223.6010 365.9931,223.5809 365.3729,223.5809 L364.5441,223.5809 Z Z M370.4108,226.4587 C370.4108,225.5884 370.5419,224.8568 370.8023,224.2645 C370.9950,223.8293 371.2614,223.4378 371.5972,223.0922 C371.9330,222.7461 372.3010,222.4899 372.7002,222.3208 C373.2330,222.0963 373.8472,221.9832 374.5428,221.9832 C375.8025,221.9832 376.8081,222.3747 377.5654,223.1555 C378.3205,223.9385 378.6983,225.0256 378.6983,226.4189 C378.6983,227.8002 378.3227,228.8813 377.5736,229.6604 C376.8240,230.4412 375.8204,230.8310 374.5663,230.8310 C373.2964,230.8310 372.2851,230.4434 371.5356,229.6664 C370.7864,228.8911 370.4108,227.8221 370.4108,226.4587 Z Z M372.1875,226.4009 C372.1875,227.3689 372.4123,228.1022 372.8595,228.6029 C373.3067,229.1019 373.8750,229.3524 374.5625,229.3524 C375.2521,229.3524 375.8166,229.1040 376.2599,228.6089 C376.7011,228.1120 376.9217,227.3689 376.9217,226.3774 C376.9217,225.3974 376.7071,224.6662 376.2758,224.1852 C375.8466,223.7021 375.2761,223.4618 374.5625,223.4618 C373.8510,223.4618 373.2767,223.7064 372.8415,224.1929 C372.4063,224.6821 372.1875,225.4175 372.1875,226.4009 Z Z M379.1793,230.6759 L382.1266,226.2240 L379.4534,222.1383 L381.4670,222.1383 L383.1481,224.6799 L384.8292,222.1383 L386.8466,222.1383 L384.1675,226.2262 L387.1092,230.6759 L385.0383,230.6759 L383.1460,227.7844 L381.2519,230.6759 L379.1793,230.6759 Z Z M390.2389,230.6759 L390.2389,227.0828 L387.1088,222.1383 L389.1300,222.1383 L391.1491,225.5186 L393.1146,222.1383 L395.0982,222.1383 L391.9680,227.0948 L391.9680,230.6759 L390.2389,230.6759 Z"
       style="stroke-width: 1.0502; stroke: #ffffff; stroke-dasharray: none; stroke-linecap: butt; stroke-linejoin: miter; fill-rule: evenodd; fill: #1b1918; "
       id="path11" />
  </g>
</svg>
